<?xml version="1.0" encoding="utf-8"?>
<!-- Generator: Adobe Illustrator 19.1.1, SVG Export Plug-In . SVG Version: 6.00 Build 0)  -->
<svg version="1.1" id="Layer_1" xmlns="http://www.w3.org/2000/svg" xmlns:xlink="http://www.w3.org/1999/xlink" x="0px" y="0px"
	 viewBox="0 0 237.2 75.8" style="enable-background:new 0 0 237.2 75.8;" xml:space="preserve">
<style type="text/css">
	.st0{fill:none;stroke:#5481E6;stroke-width:20;stroke-miterlimit:10;}
	.st1{fill:none;stroke:#913CCD;stroke-width:20;stroke-miterlimit:10;}
	.st2{fill:none;stroke:#F15F74;stroke-width:20;stroke-miterlimit:10;}
	.st3{fill:none;stroke:#F76D3C;stroke-width:20;stroke-miterlimit:10;}
	.st4{fill:#F7D842;stroke:#F7D842;stroke-width:20;stroke-miterlimit:10;}
	.st5{fill:#98CB4A;stroke:#98CB4A;stroke-width:20;stroke-miterlimit:10;}
</style>
<rect x="21.1" y="21.1" transform="matrix(0.9675 -0.2529 0.2529 0.9675 -8.3488 10.8117)" class="st0" width="33.6" height="33.6"/>
<rect x="21.1" y="21.1" transform="matrix(0.4947 0.8691 -0.8691 0.4947 52.0631 -13.7797)" class="st1" width="33.6" height="33.6"/>
<rect x="21.1" y="21.1" transform="matrix(0.7028 0.7114 -0.7114 0.7028 38.2091 -15.6899)" class="st2" width="33.6" height="33.6"/>
<rect x="21.1" y="21.1" transform="matrix(0.8629 0.5053 -0.5053 0.8629 24.3327 -13.9494)" class="st3" width="33.6" height="33.6"/>
<rect x="21.1" y="21.1" transform="matrix(0.9643 0.2647 -0.2647 0.9643 11.3796 -8.6767)" class="st4" width="33.6" height="33.6"/>
<rect x="21.1" y="21.1" transform="matrix(1 6.119794e-003 -6.119794e-003 1 0.2325 -0.2311)" class="st5" width="33.6" height="33.6"/>
<g>
	<path d="M89.7,24.5c0-0.9,0.3-1.7,0.9-2.3s1.4-0.9,2.4-0.9c1,0,1.8,0.3,2.4,0.9c0.6,0.6,0.9,1.4,0.9,2.3c0,0.9-0.3,1.7-0.9,2.3
		c-0.6,0.6-1.4,0.9-2.4,0.9c-1,0-1.8-0.3-2.4-0.9C90.1,26.2,89.7,25.4,89.7,24.5z M96.2,46.8c-0.3,0-0.7,0.1-1.2,0.2
		c-0.5,0.1-1,0.1-1.6,0.1s-1,0-1.4-0.1c-0.4-0.1-0.8-0.2-1.1-0.4s-0.5-0.5-0.7-0.9c-0.2-0.4-0.2-0.9-0.2-1.5V29.6
		c0.3,0,0.7-0.1,1.2-0.2c0.5-0.1,1-0.1,1.6-0.1s1,0,1.4,0.1c0.4,0.1,0.8,0.2,1.1,0.4c0.3,0.2,0.5,0.5,0.7,0.9
		c0.2,0.4,0.2,0.9,0.2,1.5V46.8z"/>
	<path d="M108.4,28.8c1,0,1.9,0.1,2.9,0.4c0.9,0.3,1.8,0.7,2.5,1.2c0.7-0.5,1.5-0.9,2.4-1.2c0.9-0.3,2-0.5,3.3-0.5
		c0.9,0,1.8,0.1,2.7,0.4c0.9,0.2,1.7,0.6,2.3,1.1c0.7,0.5,1.2,1.2,1.6,2.1c0.4,0.9,0.6,1.9,0.6,3.1v11.3c-0.2,0.1-0.6,0.1-1.1,0.2
		c-0.5,0.1-1,0.1-1.6,0.1c-0.5,0-1,0-1.4-0.1c-0.4-0.1-0.8-0.2-1.1-0.4c-0.3-0.2-0.5-0.5-0.7-0.9c-0.2-0.4-0.2-0.9-0.2-1.5v-8.6
		c0-0.7-0.2-1.2-0.6-1.6c-0.4-0.3-1-0.5-1.7-0.5c-0.3,0-0.7,0.1-1.1,0.2s-0.7,0.3-0.9,0.5c0,0.1,0,0.2,0,0.3c0,0.1,0,0.2,0,0.2v12
		c-0.3,0.1-0.7,0.1-1.2,0.2c-0.5,0.1-1,0.1-1.6,0.1c-0.5,0-1,0-1.4-0.1c-0.4-0.1-0.8-0.2-1.1-0.4c-0.3-0.2-0.5-0.5-0.7-0.9
		c-0.2-0.4-0.2-0.9-0.2-1.5v-8.6c0-0.7-0.2-1.2-0.7-1.6c-0.4-0.3-1-0.5-1.6-0.5c-0.4,0-0.8,0.1-1.1,0.2s-0.6,0.3-0.8,0.4v12.6
		c-0.2,0.1-0.6,0.1-1.1,0.2c-0.5,0.1-1,0.1-1.6,0.1c-0.5,0-1,0-1.4-0.1c-0.4-0.1-0.8-0.2-1.1-0.4s-0.5-0.5-0.7-0.9
		c-0.2-0.4-0.2-0.9-0.2-1.5V33.4c0-0.6,0.1-1.2,0.4-1.5c0.3-0.4,0.7-0.7,1.1-1.1c0.8-0.6,1.8-1,3-1.4
		C105.8,29,107.1,28.8,108.4,28.8z"/>
	<path d="M139,28.8c1.4,0,2.6,0.2,3.7,0.5c1.1,0.3,2.1,0.8,2.8,1.3c0.5,0.3,0.9,0.7,1.1,1.1c0.3,0.4,0.4,0.9,0.4,1.6V46
		c0,1.3-0.2,2.4-0.7,3.3c-0.5,0.9-1.1,1.7-2,2.3c-0.8,0.6-1.8,1.1-2.9,1.3c-1.1,0.3-2.3,0.4-3.6,0.4c-2.2,0-3.9-0.3-5.1-0.9
		c-1.2-0.6-1.9-1.5-1.9-2.9c0-0.6,0.1-1,0.3-1.5c0.2-0.4,0.5-0.7,0.8-1c0.7,0.4,1.5,0.7,2.4,1c0.9,0.3,1.8,0.4,2.7,0.4
		c1.3,0,2.3-0.2,3.1-0.6s1.2-1.1,1.2-2.1v-0.6c-1,0.4-2.2,0.6-3.6,0.6c-1.1,0-2.1-0.2-3.1-0.5c-1-0.3-1.8-0.8-2.6-1.5
		s-1.3-1.6-1.8-2.6c-0.4-1.1-0.7-2.4-0.7-3.8c0-1.5,0.2-2.7,0.7-3.8s1.1-2,1.9-2.7c0.8-0.7,1.8-1.2,3-1.6
		C136.4,29,137.7,28.8,139,28.8z M141.2,34.1c-0.2-0.1-0.4-0.2-0.7-0.3c-0.3-0.1-0.7-0.1-1.2-0.1c-1.2,0-2.1,0.3-2.6,1
		c-0.6,0.7-0.9,1.6-0.9,2.8c0,1.4,0.3,2.4,0.9,3c0.6,0.6,1.3,0.9,2.2,0.9c1,0,1.8-0.2,2.3-0.7V34.1z"/>
	<path d="M165.6,41.6c0,1.8-0.7,3.3-2.1,4.3s-3.4,1.5-6,1.5c-1,0-1.9-0.1-2.8-0.2c-0.9-0.1-1.6-0.4-2.2-0.7s-1.1-0.7-1.4-1.1
		c-0.3-0.5-0.5-1-0.5-1.6c0-0.6,0.1-1.1,0.4-1.5c0.2-0.4,0.5-0.7,0.9-1c0.7,0.4,1.5,0.7,2.4,1s1.9,0.5,3.1,0.5
		c0.7,0,1.3-0.1,1.7-0.3c0.4-0.2,0.6-0.5,0.6-0.9c0-0.3-0.1-0.6-0.4-0.8c-0.3-0.2-0.8-0.3-1.4-0.5l-1.1-0.2c-2.1-0.4-3.6-1-4.7-1.9
		c-1-0.9-1.5-2.1-1.5-3.8c0-0.9,0.2-1.7,0.6-2.4c0.4-0.7,0.9-1.3,1.6-1.8c0.7-0.5,1.5-0.9,2.5-1.1c1-0.3,2-0.4,3.2-0.4
		c0.9,0,1.7,0.1,2.5,0.2c0.8,0.1,1.5,0.3,2,0.6c0.6,0.3,1,0.6,1.4,1c0.3,0.4,0.5,0.9,0.5,1.5c0,0.6-0.1,1-0.3,1.4
		c-0.2,0.4-0.5,0.7-0.8,1c-0.2-0.1-0.5-0.2-0.9-0.4c-0.4-0.1-0.8-0.3-1.3-0.4c-0.5-0.1-0.9-0.2-1.4-0.3c-0.5-0.1-0.9-0.1-1.3-0.1
		c-0.8,0-1.4,0.1-1.8,0.3c-0.4,0.2-0.6,0.5-0.6,0.8c0,0.3,0.1,0.5,0.4,0.6c0.2,0.2,0.7,0.3,1.4,0.5l1.1,0.3c2.3,0.5,3.9,1.3,4.9,2.2
		C165.1,39,165.6,40.2,165.6,41.6z"/>
	<path d="M174.7,40.9c0,0.6,0.2,1.1,0.6,1.3s1,0.4,1.7,0.4c0.4,0,0.7,0,1.1-0.1s0.7-0.1,1-0.2c0.2,0.3,0.4,0.6,0.6,0.9
		c0.2,0.3,0.2,0.7,0.2,1.2c0,0.9-0.3,1.7-1,2.2c-0.7,0.6-1.9,0.9-3.6,0.9c-2.1,0-3.7-0.5-4.9-1.4c-1.1-1-1.7-2.5-1.7-4.7V25.9
		c0.3-0.1,0.6-0.1,1.1-0.2c0.5-0.1,1-0.1,1.6-0.1c1.1,0,1.9,0.2,2.5,0.6c0.6,0.4,0.9,1.2,0.9,2.4v2.3h4.7c0.1,0.3,0.3,0.6,0.4,1
		c0.1,0.4,0.2,0.8,0.2,1.3c0,0.8-0.2,1.4-0.6,1.8c-0.4,0.4-0.9,0.6-1.5,0.6h-3.3V40.9z"/>
	<path d="M190.2,28.8c1.3,0,2.5,0.1,3.5,0.4c1.1,0.3,2,0.7,2.7,1.2c0.8,0.5,1.3,1.2,1.7,2.1c0.4,0.8,0.6,1.8,0.6,2.9v8.1
		c0,0.6-0.2,1.1-0.5,1.5c-0.3,0.4-0.8,0.7-1.2,1c-1.6,0.9-3.8,1.4-6.6,1.4c-1.3,0-2.4-0.1-3.4-0.4c-1-0.2-1.9-0.6-2.6-1.1
		s-1.3-1.1-1.7-1.8c-0.4-0.7-0.6-1.6-0.6-2.6c0-1.7,0.5-2.9,1.5-3.8c1-0.9,2.5-1.4,4.6-1.7l4.7-0.5v-0.3c0-0.7-0.3-1.2-0.9-1.5
		s-1.5-0.5-2.6-0.5c-0.9,0-1.8,0.1-2.7,0.3c-0.9,0.2-1.6,0.4-2.3,0.7c-0.3-0.2-0.6-0.5-0.8-1c-0.2-0.4-0.3-0.9-0.3-1.4
		c0-0.6,0.1-1.1,0.4-1.5c0.3-0.4,0.8-0.7,1.4-1c0.7-0.3,1.5-0.5,2.5-0.6C188.4,28.9,189.3,28.8,190.2,28.8z M190.5,43
		c0.4,0,0.9,0,1.3-0.1c0.5-0.1,0.9-0.2,1.1-0.3v-2.9l-2.6,0.2c-0.7,0-1.2,0.2-1.7,0.4c-0.4,0.2-0.6,0.6-0.6,1.1
		c0,0.5,0.2,0.9,0.6,1.2C188.9,42.8,189.6,43,190.5,43z"/>
	<path d="M212.4,33.7c-0.6,0-1.2,0.1-1.7,0.3c-0.5,0.2-1,0.5-1.4,0.8c-0.4,0.4-0.7,0.8-1,1.4c-0.2,0.6-0.4,1.2-0.4,1.9
		c0,1.5,0.4,2.6,1.3,3.3c0.9,0.7,1.9,1.1,3.1,1.1c0.7,0,1.3-0.1,1.9-0.3s1-0.3,1.4-0.5c0.5,0.3,0.8,0.7,1.1,1.1
		c0.2,0.4,0.4,0.9,0.4,1.4c0,1-0.5,1.7-1.4,2.3c-0.9,0.5-2.2,0.8-3.9,0.8c-1.5,0-2.9-0.2-4.1-0.7c-1.2-0.4-2.3-1.1-3.1-1.9
		c-0.9-0.8-1.6-1.8-2-2.9c-0.5-1.1-0.7-2.4-0.7-3.7c0-1.6,0.3-3,0.8-4.2c0.5-1.2,1.2-2.2,2.1-2.9c0.9-0.8,1.9-1.3,3.1-1.7
		c1.2-0.4,2.4-0.6,3.7-0.6c1.7,0,3.1,0.3,4,0.9c0.9,0.6,1.4,1.4,1.4,2.4c0,0.5-0.1,0.9-0.3,1.3c-0.2,0.4-0.5,0.7-0.8,1
		c-0.4-0.2-0.9-0.4-1.5-0.6C213.7,33.7,213.1,33.7,212.4,33.7z"/>
	<path d="M237.2,43.7c-0.1,1.1-0.5,2-1,2.6c-0.5,0.6-1.3,0.9-2.4,0.9c-0.8,0-1.5-0.2-2.1-0.6c-0.6-0.4-1.2-1-1.9-1.9l-3.6-4.5v6.5
		c-0.3,0-0.7,0.1-1.2,0.2c-0.5,0.1-1,0.1-1.6,0.1c-0.5,0-1,0-1.4-0.1c-0.4-0.1-0.8-0.2-1.1-0.4c-0.3-0.2-0.5-0.5-0.7-0.9
		c-0.2-0.4-0.2-0.9-0.2-1.5V23.4c0.3-0.1,0.7-0.1,1.2-0.2c0.5-0.1,1-0.1,1.6-0.1s1,0,1.4,0.1c0.4,0.1,0.8,0.2,1.1,0.4
		c0.3,0.2,0.5,0.5,0.7,0.9c0.2,0.4,0.2,0.9,0.2,1.5v9.5l6.2-6.3c1.2,0,2.2,0.3,3,0.8c0.8,0.6,1.1,1.2,1.1,2.1c0,0.4-0.1,0.7-0.2,1
		c-0.1,0.3-0.3,0.6-0.6,0.9s-0.6,0.6-1,1c-0.4,0.3-0.9,0.8-1.4,1.2l-2.1,1.8L237.2,43.7z"/>
</g>
</svg>
