<?xml version="1.0" encoding="utf-8"?>
<!-- Generator: Adobe Illustrator 19.1.1, SVG Export Plug-In . SVG Version: 6.00 Build 0)  -->
<svg version="1.1" id="Layer_1" xmlns="http://www.w3.org/2000/svg" xmlns:xlink="http://www.w3.org/1999/xlink" x="0px" y="0px"
	 viewBox="0 0 75.8 75.8" style="enable-background:new 0 0 75.8 75.8;" xml:space="preserve">
<style type="text/css">
	.st0{fill:none;stroke:#7F7F7F;stroke-width:20;stroke-miterlimit:10;}
	.st1{fill:none;stroke:#656565;stroke-width:20;stroke-miterlimit:10;}
	.st2{fill:none;stroke:#8D8D8D;stroke-width:20;stroke-miterlimit:10;}
	.st3{fill:none;stroke:#919191;stroke-width:20;stroke-miterlimit:10;}
	.st4{fill:#D1D1D1;stroke:#D1D1D1;stroke-width:20;stroke-miterlimit:10;}
	.st5{fill:#AEAEAE;stroke:#AEAEAE;stroke-width:20;stroke-miterlimit:10;}
</style>
<rect x="21.1" y="21.1" transform="matrix(0.9675 -0.2529 0.2529 0.9675 -8.3488 10.8117)" class="st0" width="33.6" height="33.6"/>
<rect x="21.1" y="21.1" transform="matrix(0.4947 0.8691 -0.8691 0.4947 52.0631 -13.7797)" class="st1" width="33.6" height="33.6"/>
<rect x="21.1" y="21.1" transform="matrix(0.7028 0.7114 -0.7114 0.7028 38.2091 -15.6899)" class="st2" width="33.6" height="33.6"/>
<rect x="21.1" y="21.1" transform="matrix(0.8629 0.5053 -0.5053 0.8629 24.3327 -13.9494)" class="st3" width="33.6" height="33.6"/>
<rect x="21.1" y="21.1" transform="matrix(0.9643 0.2647 -0.2647 0.9643 11.3796 -8.6767)" class="st4" width="33.6" height="33.6"/>
<rect x="21.1" y="21.1" transform="matrix(1 6.119794e-003 -6.119794e-003 1 0.2325 -0.2311)" class="st5" width="33.6" height="33.6"/>
</svg>
